<mxfile host="app.diagrams.net" modified="2022-05-27T11:53:36.615Z" agent="5.0 (Macintosh; Intel Mac OS X 10_15_7) AppleWebKit/605.1.15 (KHTML, like Gecko) Version/15.2 Safari/605.1.15" etag="uXfMf6NEEoKXbEVjZHwN" version="18.1.3" type="github">
  <diagram name="Page-1" id="82e54ff1-d628-8f03-85c4-9753963a91cd">
    <mxGraphModel dx="1196" dy="738" grid="1" gridSize="10" guides="1" tooltips="1" connect="1" arrows="1" fold="1" page="1" pageScale="1" pageWidth="1100" pageHeight="850" background="none" math="0" shadow="0">
      <root>
        <mxCell id="0" />
        <mxCell id="1" parent="0" />
        <mxCell id="4ec97bd9e5d20128-1" value="" style="line;strokeWidth=2;html=1;fillColor=none;fontSize=28;fontColor=#004D99;strokeColor=#004D99;" parent="1" vertex="1">
          <mxGeometry x="40" y="400" width="1000" height="10" as="geometry" />
        </mxCell>
        <mxCell id="4ec97bd9e5d20128-5" value="PM 需求/Story" style="shape=offPageConnector;whiteSpace=wrap;html=1;fillColor=#0075E8;fontSize=15;fontColor=#FFFFFF;size=0.5093750000000015;verticalAlign=top;strokeColor=none;" parent="1" vertex="1">
          <mxGeometry x="120" y="325" width="160" height="60" as="geometry" />
        </mxCell>
        <mxCell id="4ec97bd9e5d20128-6" value="TPM &amp;amp; PM &amp;amp; DEV&lt;br&gt;评审确认" style="shape=offPageConnector;whiteSpace=wrap;html=1;fillColor=#0075E8;fontSize=15;fontColor=#FFFFFF;size=0.5093750000000015;verticalAlign=top;strokeColor=none;" parent="1" vertex="1">
          <mxGeometry x="573" y="324" width="160" height="60" as="geometry" />
        </mxCell>
        <mxCell id="4ec97bd9e5d20128-7" value="&lt;span&gt;TPM 工时估算&lt;/span&gt;" style="shape=offPageConnector;whiteSpace=wrap;html=1;fillColor=#0075E8;fontSize=15;fontColor=#FFFFFF;size=0.4178571428571445;flipV=1;verticalAlign=bottom;strokeColor=none;spacingBottom=4;" parent="1" vertex="1">
          <mxGeometry x="347" y="425" width="160" height="60" as="geometry" />
        </mxCell>
        <mxCell id="4ec97bd9e5d20128-8" value="&lt;span&gt;同步&lt;br&gt;Teambition预计总工时&lt;/span&gt;" style="shape=offPageConnector;whiteSpace=wrap;html=1;fillColor=#0075E8;fontSize=15;fontColor=#FFFFFF;size=0.4178571428571445;flipV=1;verticalAlign=bottom;strokeColor=none;spacingBottom=4;" parent="1" vertex="1">
          <mxGeometry x="800" y="425" width="160" height="60" as="geometry" />
        </mxCell>
        <mxCell id="4ec97bd9e5d20128-9" value="" style="ellipse;whiteSpace=wrap;html=1;fillColor=#61BAFF;fontSize=28;fontColor=#004D99;strokeWidth=3;strokeColor=#004D99;" parent="1" vertex="1">
          <mxGeometry x="190" y="395" width="20" height="20" as="geometry" />
        </mxCell>
        <mxCell id="4ec97bd9e5d20128-10" value="" style="ellipse;whiteSpace=wrap;html=1;fillColor=#61BAFF;fontSize=28;fontColor=#004D99;strokeWidth=3;strokeColor=#004D99;" parent="1" vertex="1">
          <mxGeometry x="417" y="395" width="20" height="20" as="geometry" />
        </mxCell>
        <mxCell id="4ec97bd9e5d20128-11" value="" style="ellipse;whiteSpace=wrap;html=1;fillColor=#61BAFF;fontSize=28;fontColor=#004D99;strokeWidth=3;strokeColor=#004D99;" parent="1" vertex="1">
          <mxGeometry x="643" y="395" width="20" height="20" as="geometry" />
        </mxCell>
        <mxCell id="4ec97bd9e5d20128-13" value="" style="ellipse;whiteSpace=wrap;html=1;fillColor=#61BAFF;fontSize=28;fontColor=#004D99;strokeWidth=3;strokeColor=#004D99;" parent="1" vertex="1">
          <mxGeometry x="870" y="395" width="20" height="20" as="geometry" />
        </mxCell>
        <mxCell id="4ec97bd9e5d20128-14" value="1. 输入待评估需求/Story相关物料.&#xa;2. 基本开发元素工时标准&#xa;3. " style="text;spacing=4;spacingTop=-7;overflow=hidden;strokeColor=none;strokeWidth=3;fillColor=#E6E6E6;fontSize=13;fontColor=#000000;align=left;rounded=1;verticalAlign=middle;whiteSpace=wrap;" parent="1" vertex="1">
          <mxGeometry x="93" y="430" width="215" height="70" as="geometry" />
        </mxCell>
        <mxCell id="4ec97bd9e5d20128-16" value="1. 根据Story/Task拆解细化.&#xa;2. 输入基本开发元素工时标准&#xa;3. " style="text;spacing=5;spacingTop=14;whiteSpace=wrap;overflow=hidden;strokeColor=none;strokeWidth=3;fillColor=#E6E6E6;fontSize=13;fontColor=#000000;align=left;rounded=1;spacingRight=0;" parent="1" vertex="1">
          <mxGeometry x="319" y="290" width="215" height="80" as="geometry" />
        </mxCell>
        <mxCell id="4ec97bd9e5d20128-17" value="1. 根据Story/Task拆解细化.&#xa;2. 输入基本开发元素工时标准&#xa;3.&amp;nbsp;" style="text;spacing=5;spacingTop=2;whiteSpace=wrap;overflow=hidden;strokeColor=none;strokeWidth=3;fillColor=#E6E6E6;fontSize=13;fontColor=#000000;align=left;rounded=1;" parent="1" vertex="1">
          <mxGeometry x="545" y="430" width="215" height="80" as="geometry" />
        </mxCell>
        <mxCell id="4ec97bd9e5d20128-18" value="1. 根据Story/Task拆解细化.&#xa;2. 输入基本开发元素工时标准&#xa;3. " style="text;spacing=5;spacingTop=4;whiteSpace=wrap;overflow=hidden;strokeColor=none;strokeWidth=3;fillColor=#E6E6E6;fontSize=13;fontColor=#000000;align=left;rounded=1;" parent="1" vertex="1">
          <mxGeometry x="773" y="290" width="215" height="80" as="geometry" />
        </mxCell>
      </root>
    </mxGraphModel>
  </diagram>
</mxfile>
